<svg xmlns="http://www.w3.org/2000/svg" preserveAspectRatio="xMidYMid" viewBox="0 0 256 366"><path d="M182 9.1c3 3.7 4.5 8.7 7.6 18.7L256 246.1a276.5 276.5 0 0 0-79.4-27l-43.3-146a5.6 5.6 0 0 0-10.8 0L79.8 219c-28.3 5-55.1 14.2-79.8 27L66.8 27.7c3-10 4.5-15 7.5-18.7 2.7-3.2 6-5.8 10-7.3C88.7 0 93.9 0 104.3 0H152c10.4 0 15.7 0 20 1.8 4 1.5 7.4 4 10 7.3Z"/><path fill="#FF5D01" d="M190 256.5c-11 9.3-32.8 15.7-58 15.7-31 0-56.8-9.6-63.7-22.5-2.5 7.4-3 15.9-3 21.3 0 0-1.6 26.6 16.9 45.1 0-9.6 7.8-17.4 17.4-17.4 16.5 0 16.5 14.4 16.4 26v1a42.5 42.5 0 0 0 26.3 39.4c-2.3-4.8-3.6-10-3.6-15.7 0-16.9 9.9-23.2 21.4-30.5 9.2-5.8 19.4-12.2 26.4-25.2a47.6 47.6 0 0 0 3.5-37.2Z"/></svg>