<svg xmlns="http://www.w3.org/2000/svg" fill="#FF5D01" viewBox="0 0 24 24"><path d="M16.07 16.86c-.72.62-2.15 1.03-3.8 1.03-2.04 0-3.74-.63-4.2-1.48a4.8 4.8 0 0 0-.2 1.4s-.1 1.75 1.12 2.97c0-.63.51-1.14 1.14-1.14 1.09 0 1.09.94 1.08 1.7v.08A2.8 2.8 0 0 0 12.94 24a2.35 2.35 0 0 1-.24-1.03c0-1.1.65-1.52 1.41-2 .6-.38 1.27-.8 1.73-1.66a3.13 3.13 0 0 0 .38-1.5 3.14 3.14 0 0 0-.15-.95zM15.55.6c.2.24.3.57.5 1.23l4.37 14.35a18.18 18.18 0 0 0-5.23-1.77L12.35 4.8a.37.37 0 0 0-.71 0l-2.81 9.6a18.18 18.18 0 0 0-5.25 1.78l4.4-14.35c.2-.66.3-.99.5-1.23a1.61 1.61 0 0 1 .64-.48C9.43 0 9.77 0 10.45 0h3.14c.68 0 1.03 0 1.32.12a1.61 1.61 0 0 1 .65.48z"/></svg>