<svg xmlns="http://www.w3.org/2000/svg" viewBox="0 0 128 128"><path fill="#0acf83" d="M45.5 129c11.9 0 21.5-9.6 21.5-21.5V86H45.5a21.5 21.5 0 1 0 0 43zm0 0"/><path fill="#a259ff" d="M24 64.5C24 52.6 33.6 43 45.5 43H67v43H45.5A21.5 21.5 0 0 1 24 64.5zm0 0"/><path fill="#f24e1e" d="M24 21.5C24 9.6 33.6 0 45.5 0H67v43H45.5A21.5 21.5 0 0 1 24 21.5zm0 0"/><path fill="#ff7262" d="M67 0h21.5a21.5 21.5 0 1 1 0 43H67zm0 0"/><path fill="#1abcfe" d="M110 64.5a21.5 21.5 0 1 1-43 0 21.5 21.5 0 0 1 43 0zm0 0"/></svg>