<svg xmlns="http://www.w3.org/2000/svg" viewBox="0 0 128 128"><path fill="#ea4535" d="M80.6 40.3h.4l-.2-.2 14-14v-.3A45.6 45.6 0 0 0 20.7 48l.8-.2A32.8 32.8 0 0 1 45.8 43l.3-.1c9-9.9 24.2-11.1 34.6-2.6h-.1z"/><path fill="#557ebf" d="M108.1 47.8a45.2 45.2 0 0 0-13.8-22.1L80 39.9c6 4.9 9.5 12.3 9.3 20v2.5c16.9 0 16.9 25.2 0 25.2H63.9v20h-.1l.1.2h25.4a32.8 32.8 0 0 0 18.8-60z"/><path fill="#36a852" d="M39 107.9h26.3V87.7H39a14 14 0 0 1-5.4-1.1l-15.2 14.6v.2c6 4.3 13.2 6.6 20.7 6.6z"/><path fill="#f9bc15" d="M40.2 41.9A35 35 0 0 0 7.3 64.7 32.8 32.8 0 0 0 19.1 102l15.6-14.9a12.6 12.6 0 0 1-4-20.8 13.7 13.7 0 0 1 21.7 3.8L68 55.2a35.1 35.1 0 0 0-27.8-13.1z"/></svg>