<svg xmlns="http://www.w3.org/2000/svg" xml:space="preserve" style="fill-rule:evenodd;clip-rule:evenodd;stroke-linejoin:round;stroke-miterlimit:2" viewBox="0 0 48 48"><path d="m20.1 18.2.1 2.3-1.6 3-2.5 4.9-.5 4.1 1.8 5.8 4.1 2.3h6.2l5.8-4.4 2.6-6.9-6-7.3-1.7-4.1-8.3.3Z" style="fill:#eceff1;fill-rule:nonzero" transform="translate(-8.3 -10.5) scale(1.322)"/><path d="M34.3 23.9c-1.6-2.3-2.9-3.7-3.6-6.6-.7-2.9.2-2.1-.4-4.6A7.9 7.9 0 0 0 29 9.8a3.8 3.8 0 0 0-1.7-1.2c-.9-.5-3-1.3-5.6.1-2.7 1.4-2.4 4.4-1.9 10.5 0 .4-.1.9-.3 1.3-.4.9-1.1 1.7-1.7 2.4-.7 1-1.4 2-1.9 3.1-1.2 2.3-2.3 5.2-2 6.3.5-.1 6.8 9.5 6.8 9.7l3.6-.1c2.1-.1 3.3-.2 5 .2l-.1-.9.2-1.8.3-1.6a10 10 0 0 1-4.5 2.2c-1.5.3-4-.2-5.2-1.7l.4-.1c.3-.1.6-.2.7-.4.3-.5.1-1-.1-1.3-.2-.3-1.7-1.4-2.4-2l-1.5-1.3-.8-.8-.4-.5c-.2-.5-.3-1.1-.2-1.9.1-1.1.5-2 1-3l.7-1.2s-1.7 4.2-.8 5.5c0 0 .1-1.3.5-2.6.3-.9.8-2.2 1.4-2.9.6-.7 2.1-3.3 2.2-4.9l.1-1.9c-.4-.4 6.6-1.4 7-.3l2.3 5.9c.4.9.9 1.7 1.2 2.7.3 1.1.5 2.6.5 4.1l-.1 1.3c.2 0 4.1-4.2-.5-7.7 0 0 2.8 1.3 2.9 3.9.1 2.1-.8 3.8-1 4.1l2.2.9a5 5 0 0 0 1.2-.3l.4-1.4c.7-2.3-1-6-2.6-8.3Z" style="fill:#263238;fill-rule:nonzero" transform="translate(-8.3 -10.5) scale(1.322)"/><ellipse cx="21.6" cy="15.3" rx="1.3" ry="2" style="fill:#eceff1" transform="translate(-8.3 -10.5) scale(1.322)"/><ellipse cx="26.1" cy="15.2" rx="1.7" ry="2.3" style="fill:#eceff1" transform="translate(-8.3 -10.5) scale(1.322)"/><ellipse cx="21.7" cy="15.5" rx="1.2" ry=".7" style="fill:#212121" transform="rotate(-97.2 19.8 19) scale(1.32199)"/><ellipse cx="26" cy="15.6" rx="1" ry="1.3" style="fill:#212121" transform="translate(-8.3 -10.5) scale(1.322)"/><path d="M39.3 37.6c-.4-.2-1.1-.5-1.7-1.4-.3-.5-.2-1.9-.7-2.5-.3-.4-.7-.2-.8-.2-.9.2-3 1.6-4.4 0-.2-.2-.5-.5-1-.5s-.7.2-.9.6c-.2.4-.2.7-.2 1.7l-.1 2.4c-.2 1.7-.5 2.7-.5 3.7 0 1.1.3 1.8.7 2.1.3.3.8.5 1.9.5 1.1 0 1.8-.4 2.5-1.1.5-.5.9-.7 2.3-1.7l3.1-1.9c.2-.2.5-.3.5-.9 0-.5-.4-.7-.7-.8Zm-20.1.3L17.4 35c-.6-1-1.9-2.9-2.7-2.9-.6 0-.9.3-1.3.7-.4.4-.8 1.3-1.5 1.8-.6.5-2.3.4-2.7 1-.4.6.4 1.5.4 3 0 .6-.5 1-.6 1.4-.1.5-.2.8 0 1.2.4.6.9.8 4.3 1.5 1.8.4 3.5 1.4 4.6 1.5 1.1.1 3 0 3-2.7.1-1.6-.8-2-1.7-3.6Zm1.9-18.1c-.6-.4-1.1-.8-1.1-1.4 0-.6.4-.8 1-1.3.1-.1 1.2-1.1 2.3-1.1 1.1 0 2.4.7 2.9.9.9.2 1.8.4 1.7 1.1-.1 1-.2 1.2-1.2 1.7-.7.2-2 1.3-2.9 1.3l-1.4-.1c-.3-.1-.8-.6-1.3-1.1Z" style="fill:#ffc107;fill-rule:nonzero" transform="translate(-8.3 -10.5) scale(1.322)"/><path d="m20.9 19 .8.5.5.2h.9c.5 0 1.2-.2 1.9-.6l1.3-.7c.5-.3 1-.6.8-.7-.2-.1-.4 0-1.1.4l-1.7.9-1 .3h-.9l-.8-.2-.4-.2-.8-.6s-.2 0-.1.1l.6.6Zm3-2.2c.1.2.3.2.4.3l.2.1c.1-.1 0-.3-.1-.3 0-.2-.5-.2-.5-.1Zm-1.6.2.2.1.3-.2c.2-.1.1-.2-.2-.2l-.3.3Z" style="fill:#634703;fill-rule:nonzero" transform="translate(-8.3 -10.5) scale(1.322)"/><path d="M32 34.7v.3c.2.4.7.5 1.1.5a2 2 0 0 0 1.5-.8l.2-.3.4-.6-.1-.2c-.1-.2-.4-.4-.8-.5l-1-.2c-.9-.1-1.4.2-1.7.5l.1.1c.2.2.3.4.3.7v.5Z" style="fill:#455a64;fill-rule:nonzero" transform="translate(-8.3 -10.5) scale(1.322)"/></svg>