<svg xmlns="http://www.w3.org/2000/svg" viewBox="0 0 128 128"><path fill="#00618A" d="M117 97.8a40 40 0 0 0-16.6 2.3c-1.3.6-3.3.6-3.6 2.2.7.7.9 1.8 1.4 2.7 1 1.8 2.9 4 4.5 5.3 1.8 1.3 3.6 2.7 5.5 3.9 3.3 2 7 3.2 10.3 5.3 2 1.2 3.8 2.7 5.7 4 .9.7 1.5 1.8 2.7 2.2v-.2c-.6-.8-.8-1.9-1.4-2.7l-2.5-2.6a41.6 41.6 0 0 0-9-8.5c-2.7-2-8.6-4.5-9.7-7.7l-.2-.1c1.9-.3 4-1 5.8-1.4 3-.8 5.6-.6 8.6-1.4l4.1-1.1v-.8c-1.5-1.6-2.6-3.7-4.3-5.1a131 131 0 0 0-14-10.5c-2.8-1.8-6.1-2.9-9-4.3-1-.5-2.7-.8-3.3-1.6-1.5-2-2.4-4.4-3.5-6.6-2.5-4.7-4.9-9.9-7-14.9C80 53 79 49.5 77 46.5a86.2 86.2 0 0 0-33.1-32c-3.2-1.9-7-2.6-11-3.5l-6.4-.4c-1.3-.6-2.7-2.2-3.9-3-4.9-3-17.4-9.8-21-1C-.8 12.4 5 17.8 7 20.7c1.4 2 3.3 4.1 4.3 6.4.7 1.4.8 3 1.4 4.5 1.4 3.8 2.6 8 4.4 11.5 1 1.8 2 3.6 3.2 5.2.7 1 2 1.5 2.1 3-1.2 1.7-1.3 4.3-2 6.4-3 9.6-1.8 21.6 2.6 28.7 1.4 2.2 4.6 6.9 9 5 3.8-1.5 3-6.4 4-10.7.3-1 .2-1.7.7-2.3v.2l3.5 7c2.6 4.2 7.2 8.6 11 11.5 2.1 1.6 3.7 4.2 6.3 5.1v-.2h-.2c-.5-.8-1.3-1.1-2-1.8a44.6 44.6 0 0 1-4.4-5 123 123 0 0 1-9.6-15.6l-3.7-8.2c-.4-1-.4-2.6-1.3-3.2-1.3 2-3.2 3.6-4.1 5.9-1.6 3.7-1.8 8.2-2.4 12.9l-.4.2c-2.7-.7-3.6-3.5-4.6-5.9-2.6-6-3-15.8-.8-22.8.6-1.8 3.2-7.5 2.1-9.2-.5-1.6-2.2-2.6-3.1-3.9a30.8 30.8 0 0 1-3-5.4c-2.1-4.8-3-10-5.3-14.9-1-2.3-2.8-4.6-4.3-6.6-1.6-2.3-3.4-4-4.7-6.6-.4-1-1-2.6-.4-3.6.2-.6.5-1 1.2-1.1 1.1-.9 4.3.3 5.5.8 3.1 1.3 5.7 2.5 8.4 4.2 1.2.9 2.5 2.5 4 3h1.8c2.8.6 5.8.2 8.4 1 4.5 1.3 8.6 3.5 12.3 5.8a76.1 76.1 0 0 1 26.7 29.3c1 2 1.5 3.8 2.4 5.8 1.8 4.2 4 8.5 5.8 12.5 1.8 4 3.6 8.2 6 11.5 1.4 1.8 6.5 2.7 8.9 3.7 1.6.7 4.3 1.4 5.8 2.4 3 1.8 5.8 3.9 8.6 5.8 1.4 1 5.6 3.1 5.8 5zM29.6 23.5a14 14 0 0 0-3.5.4v.1h.2c.7 1.5 1.9 2.4 2.7 3.6l2 4 .2-.1c1.2-.9 1.7-2.2 1.7-4.3-.4-.5-.5-1.2-1-1.8-.5-.8-1.6-1.3-2.3-2z"/></svg>