<svg xmlns="http://www.w3.org/2000/svg" viewBox="0 0 128 128"><path fill="#00c58e" d="m39.3 109-.3-.6a5.4 5.4 0 0 1-.3-3.7H8.1l45.4-80.6 19 34.4 6.2-4.6-19-34.3c-.3-.6-2.6-4-6.2-4-1.7 0-4.3.6-6.3 4.3l-46 81.4c-.2.9-2.2 4.6-.5 7.7 1.1 1.7 2.8 3.4 6.8 3.4H46c-4 0-6-1.7-6.8-3.4z"/><path fill="#108775" d="m126.7 101.6-37-66.4c-.5-.6-2.5-4.3-6.2-4.3-1.7 0-4.2.9-6.2 4.3l-4.8 8v15.3l11-19 36.6 65.2h-13.9a6.5 6.5 0 0 1-.5 4l-.3.3c-1.7 3-6 3.4-6.6 3.4h21.6c.9 0 4.8-.3 6.8-3.4.9-1.5 1.4-4-.6-7.4z"/><path fill="#2f495e" d="M106.5 109v-.3l.3-.6c.3-1.1.6-2.3.3-3.4l-1.2-3.4L77 50.8l-4.3-7.7h-.2l-4.3 7.7-29 50.5-1 3.4a6.8 6.8 0 0 0 .5 4.3c1.1 1.7 2.8 3.4 6.8 3.4h54c.8 0 5-.3 7-3.4zm-34-50.5 26.3 46.2H46.1z"/></svg>